<svg xmlns="http://www.w3.org/2000/svg" viewBox="0 0 512 512">
  <defs>
    <linearGradient id="grad" x1="0%" y1="0%" x2="100%" y2="100%">
      <stop offset="0%" stop-color="#003c78" />
      <stop offset="100%" stop-color="#0a1f3d" />
    </linearGradient>
  </defs>
  <rect width="512" height="512" rx="128" fill="url(#grad)" />
  <g fill="#ffffff" transform="translate(80 80)">
    <path d="M176 0c97 0 176 79 176 176s-79 176-176 176S0 273 0 176 79 0 176 0zm0 32C97.3 32 32 97.3 32 176s65.3 144 144 144 144-65.3 144-144S254.7 32 176 32z" />
    <path d="M176 80c53 0 96 43 96 96s-43 96-96 96-96-43-96-96 43-96 96-96zm0 40c-30.9 0-56 25.1-56 56s25.1 56 56 56 56-25.1 56-56-25.1-56-56-56z" />
    <path d="M120 176h48l32-80h48l-32 80h48l-32 80h-48l32-80h-48z" />
  </g>
</svg>
